<?xml version="1.0" encoding="UTF-8" standalone="no"?>
<!DOCTYPE svg PUBLIC "-//W3C//DTD SVG 1.1//EN" "http://www.w3.org/Graphics/SVG/1.1/DTD/svg11.dtd">
<svg version="1.1" xmlns="http://www.w3.org/2000/svg" xmlns:xlink="http://www.w3.org/1999/xlink" preserveAspectRatio="xMidYMid meet" viewBox="0 0 640 640" width="640" height="640"><defs><path d="M191.7 63.45C191.7 91.24 191.7 151.12 191.7 178.91C191.7 191.86 181.19 202.36 168.25 202.36C140.46 202.36 80.58 202.36 52.79 202.36C39.84 202.36 29.34 191.86 29.34 178.91C29.34 151.12 29.34 91.24 29.34 63.45C29.34 50.51 39.84 40 52.79 40C80.58 40 140.46 40 168.25 40C181.19 40 191.7 50.51 191.7 63.45Z" id="fbVutPGdj"></path><path d="M272.89 256.33C272.89 284.1 272.89 343.99 272.89 371.79C272.89 384.73 262.39 395.24 249.44 395.24C221.65 395.24 161.75 395.24 133.96 395.24C121.01 395.24 110.51 384.73 110.51 371.79C110.51 343.99 110.51 284.1 110.51 256.33C110.51 243.36 121.01 232.88 133.96 232.88C161.75 232.88 221.65 232.88 249.44 232.88C262.39 232.88 272.89 243.36 272.89 256.33Z" id="b7onE2FI8N"></path><path d="M518.8 256.33C518.8 284.1 518.8 343.99 518.8 371.79C518.8 384.73 508.29 395.24 495.35 395.24C467.55 395.24 407.68 395.24 379.89 395.24C366.94 395.24 356.44 384.73 356.44 371.79C356.44 343.99 356.44 284.1 356.44 256.33C356.44 243.36 366.94 232.88 379.89 232.88C407.68 232.88 467.55 232.88 495.35 232.88C508.29 232.88 518.8 243.36 518.8 256.33Z" id="c2JjAFyYgu"></path><path d="M592.53 63.45C592.53 91.24 592.53 151.12 592.53 178.91C592.53 191.86 582.02 202.36 569.08 202.36C541.29 202.36 481.39 202.36 453.62 202.36C440.67 202.36 430.17 191.86 430.17 178.91C430.17 151.12 430.17 91.24 430.17 63.45C430.17 50.51 440.67 40 453.62 40C481.39 40 541.29 40 569.08 40C582.02 40 592.53 50.51 592.53 63.45Z" id="a1samc1xzF"></path><path d="M395.06 449.67C395.06 477.46 395.06 537.36 395.06 565.15C395.06 578.1 384.57 588.61 371.6 588.61C343.84 588.61 283.94 588.61 256.15 588.61C243.2 588.61 232.69 578.1 232.69 565.15C232.69 537.36 232.69 477.46 232.69 449.67C232.69 436.73 243.2 426.22 256.15 426.22C283.94 426.22 343.84 426.22 371.6 426.22C384.57 426.22 395.06 436.73 395.06 449.67Z" id="bhHmkFTJA"></path></defs><g><g><g><g><g><filter id="shadow5329969" x="5.34" y="16" width="226.36" height="226.36" filterUnits="userSpaceOnUse" primitiveUnits="userSpaceOnUse"><feFlood></feFlood><feComposite in2="SourceAlpha" operator="in"></feComposite><feGaussianBlur stdDeviation="1"></feGaussianBlur><feOffset dx="16" dy="16" result="afterOffset"></feOffset><feFlood flood-color="#483e37" flood-opacity="1"></feFlood><feComposite in2="afterOffset" operator="in"></feComposite><feMorphology operator="dilate" radius="1"></feMorphology><feComposite in2="SourceAlpha" operator="out"></feComposite></filter><path d="M191.7 63.45C191.7 91.24 191.7 151.12 191.7 178.91C191.7 191.86 181.19 202.36 168.25 202.36C140.46 202.36 80.58 202.36 52.79 202.36C39.84 202.36 29.34 191.86 29.34 178.91C29.34 151.12 29.34 91.24 29.34 63.45C29.34 50.51 39.84 40 52.79 40C80.58 40 140.46 40 168.25 40C181.19 40 191.7 50.51 191.7 63.45Z" id="bJHm7Hje6" fill="white" fill-opacity="1" filter="url(#shadow5329969)"></path></g><use xlink:href="#fbVutPGdj" opacity="1" fill="#ffd42a" fill-opacity="1"></use><g><use xlink:href="#fbVutPGdj" opacity="1" fill-opacity="0" stroke="#000000" stroke-width="1" stroke-opacity="0"></use></g></g><g><g><filter id="shadow7985606" x="86.51" y="208.88" width="226.39" height="226.36" filterUnits="userSpaceOnUse" primitiveUnits="userSpaceOnUse"><feFlood></feFlood><feComposite in2="SourceAlpha" operator="in"></feComposite><feGaussianBlur stdDeviation="1"></feGaussianBlur><feOffset dx="16" dy="16" result="afterOffset"></feOffset><feFlood flood-color="#483e37" flood-opacity="1"></feFlood><feComposite in2="afterOffset" operator="in"></feComposite><feMorphology operator="dilate" radius="1"></feMorphology><feComposite in2="SourceAlpha" operator="out"></feComposite></filter><path d="M272.89 256.33C272.89 284.1 272.89 343.99 272.89 371.79C272.89 384.73 262.39 395.24 249.44 395.24C221.65 395.24 161.75 395.24 133.96 395.24C121.01 395.24 110.51 384.73 110.51 371.79C110.51 343.99 110.51 284.1 110.51 256.33C110.51 243.36 121.01 232.88 133.96 232.88C161.75 232.88 221.65 232.88 249.44 232.88C262.39 232.88 272.89 243.36 272.89 256.33Z" id="a3oXMRj1MD" fill="white" fill-opacity="1" filter="url(#shadow7985606)"></path></g><use xlink:href="#b7onE2FI8N" opacity="1" fill="#aad400" fill-opacity="1"></use><g><use xlink:href="#b7onE2FI8N" opacity="1" fill-opacity="0" stroke="#000000" stroke-width="1" stroke-opacity="0"></use></g></g><g><g><filter id="shadow1488507" x="332.44" y="208.88" width="226.36" height="226.36" filterUnits="userSpaceOnUse" primitiveUnits="userSpaceOnUse"><feFlood></feFlood><feComposite in2="SourceAlpha" operator="in"></feComposite><feGaussianBlur stdDeviation="1"></feGaussianBlur><feOffset dx="16" dy="16" result="afterOffset"></feOffset><feFlood flood-color="#483e37" flood-opacity="1"></feFlood><feComposite in2="afterOffset" operator="in"></feComposite><feMorphology operator="dilate" radius="1"></feMorphology><feComposite in2="SourceAlpha" operator="out"></feComposite></filter><path d="M518.8 256.33C518.8 284.1 518.8 343.99 518.8 371.79C518.8 384.73 508.29 395.24 495.35 395.24C467.55 395.24 407.68 395.24 379.89 395.24C366.94 395.24 356.44 384.73 356.44 371.79C356.44 343.99 356.44 284.1 356.44 256.33C356.44 243.36 366.94 232.88 379.89 232.88C407.68 232.88 467.55 232.88 495.35 232.88C508.29 232.88 518.8 243.36 518.8 256.33Z" id="a1SzngDavA" fill="white" fill-opacity="1" filter="url(#shadow1488507)"></path></g><use xlink:href="#c2JjAFyYgu" opacity="1" fill="#87cdde" fill-opacity="1"></use><g><use xlink:href="#c2JjAFyYgu" opacity="1" fill-opacity="0" stroke="#000000" stroke-width="1" stroke-opacity="0"></use></g></g><g><g><filter id="shadow15109053" x="406.17" y="16" width="226.36" height="226.36" filterUnits="userSpaceOnUse" primitiveUnits="userSpaceOnUse"><feFlood></feFlood><feComposite in2="SourceAlpha" operator="in"></feComposite><feGaussianBlur stdDeviation="1"></feGaussianBlur><feOffset dx="16" dy="16" result="afterOffset"></feOffset><feFlood flood-color="#483e37" flood-opacity="1"></feFlood><feComposite in2="afterOffset" operator="in"></feComposite><feMorphology operator="dilate" radius="1"></feMorphology><feComposite in2="SourceAlpha" operator="out"></feComposite></filter><path d="M592.53 63.45C592.53 91.24 592.53 151.12 592.53 178.91C592.53 191.86 582.02 202.36 569.08 202.36C541.29 202.36 481.39 202.36 453.62 202.36C440.67 202.36 430.17 191.86 430.17 178.91C430.17 151.12 430.17 91.24 430.17 63.45C430.17 50.51 440.67 40 453.62 40C481.39 40 541.29 40 569.08 40C582.02 40 592.53 50.51 592.53 63.45Z" id="c1RVT4WLu" fill="white" fill-opacity="1" filter="url(#shadow15109053)"></path></g><use xlink:href="#a1samc1xzF" opacity="1" fill="#d4aa00" fill-opacity="1"></use><g><use xlink:href="#a1samc1xzF" opacity="1" fill-opacity="0" stroke="#000000" stroke-width="1" stroke-opacity="0"></use></g></g><g><g><filter id="shadow11986485" x="208.69" y="402.22" width="226.36" height="226.39" filterUnits="userSpaceOnUse" primitiveUnits="userSpaceOnUse"><feFlood></feFlood><feComposite in2="SourceAlpha" operator="in"></feComposite><feGaussianBlur stdDeviation="1"></feGaussianBlur><feOffset dx="16" dy="16" result="afterOffset"></feOffset><feFlood flood-color="#483e37" flood-opacity="1"></feFlood><feComposite in2="afterOffset" operator="in"></feComposite><feMorphology operator="dilate" radius="1"></feMorphology><feComposite in2="SourceAlpha" operator="out"></feComposite></filter><path d="M395.06 449.67C395.06 477.46 395.06 537.36 395.06 565.15C395.06 578.1 384.57 588.61 371.6 588.61C343.84 588.61 283.94 588.61 256.15 588.61C243.2 588.61 232.69 578.1 232.69 565.15C232.69 537.36 232.69 477.46 232.69 449.67C232.69 436.73 243.2 426.22 256.15 426.22C283.94 426.22 343.84 426.22 371.6 426.22C384.57 426.22 395.06 436.73 395.06 449.67Z" id="en1lK4UCi" fill="white" fill-opacity="1" filter="url(#shadow11986485)"></path></g><use xlink:href="#bhHmkFTJA" opacity="1" fill="#ff6600" fill-opacity="1"></use><g><use xlink:href="#bhHmkFTJA" opacity="1" fill-opacity="0" stroke="#000000" stroke-width="1" stroke-opacity="0"></use></g></g></g></g></g></svg>